<mxfile host="app.diagrams.net" modified="2023-11-06T20:18:39.648Z" agent="Mozilla/5.0 (Windows NT 10.0; Win64; x64) AppleWebKit/537.36 (KHTML, like Gecko) Chrome/119.0.0.0 Safari/537.36 Edg/119.0.0.0" version="22.0.8" etag="Re_6BqnU9lG8dbQYnNuP" type="github">
  <diagram name="PÃ¡gina-1" id="gFR7k2IDM-TxSPKPeXRC">
    <mxGraphModel>
      <root>
        <mxCell id="0" />
        <mxCell id="1" parent="0" />
      </root>
    </mxGraphModel>
  </diagram>
</mxfile>
